
        <svg xmlns="http://www.w3.org/2000/svg" xmlns:xlink="http://www.w3.org/1999/xlink" version="1.1" width="3187.5" 
        height="1004.166603088379" viewBox="0 0 3187.5 1004.166603088379">
			
			<g transform="scale(9.375) translate(10, 10)">
				<defs id="SvgjsDefs2419"></defs><g id="SvgjsG2420" featureKey="symbolFeature-0" transform="matrix(1.1111111111111112,0,0,1.1111111111111112,-5.555555555555555,-4.777777989705404)" fill="#ffffff"><g xmlns="http://www.w3.org/2000/svg"><path d="M70.9,7.1l20.9,36.5L70.9,79.9H29.1L8.1,43.5L29.1,7.1h41.6 M72.5,4.3h-45L5,43.5l22.5,39.2h45L95,43.5L72.5,4.3L72.5,4.3z   "></path><path d="M70.2,9H29.8L9.6,43.5L29.8,78h40.4l20.2-34.5L70.2,9z M30.3,10h39.3l19.7,33.6L76.2,66c0-0.1,0-0.2-0.1-0.3   c-0.1-0.1-0.2,0-0.3,0.1c-0.1,0.1,0,0.2,0,0.3c0.1,0,0.2,0,0.2-0.1l-0.4,0.7c-0.1-0.1-0.3-0.2-0.4-0.3c0,0,0-0.1,0-0.1   c0,0-0.1,0-0.1,0c-0.1-0.1-0.3-0.1-0.4-0.2c-0.4-0.2-0.9-0.6-1.5-0.9c0,0,0-0.1,0-0.1s-0.1,0-0.1,0c-0.6-0.4-1.2-0.8-1.9-1.2   c-0.6-0.4-1.3-0.9-2.1-1.3c0,0,0,0,0,0c0.1-0.1,0.1-0.2,0-0.3c-0.1-0.1-0.2,0-0.3,0.1c0,0,0,0,0,0c-0.4-0.3-0.9-0.6-1.3-0.9   c0,0,0-0.1,0-0.1c0,0-0.1,0-0.1,0c-0.9-0.6-1.8-1.2-2.7-1.9c0,0,0.1,0,0.1-0.1c0.1-0.1,0.1-0.2,0-0.3c-0.1-0.1-0.2,0-0.3,0.1   c0,0,0,0.1-0.1,0.1c-0.2-0.2-0.4-0.3-0.6-0.5c0-0.1,0-0.2,0-0.2c-0.1,0-0.1,0-0.2,0c-0.6-0.5-1.2-1-1.7-1.5c0,0,0,0,0,0   c0.1-0.1,0.1-0.2,0-0.3c-0.1-0.1-0.2,0-0.3,0.1c0,0,0,0,0,0c-0.2-0.1-0.3-0.3-0.5-0.4c-0.2-0.2-0.4-0.4-0.6-0.6c0,0,0,0,0-0.1   c0,0,0,0-0.1,0c-0.5-0.5-0.9-1-1.3-1.5c0,0,0,0,0-0.1c0,0,0,0-0.1,0c0,0,0,0,0,0c-0.3-0.4-0.4-0.6-0.7-1.1   c-0.3-0.6-0.6-1.1-0.9-1.6c-0.3-0.4-0.5-0.8-0.8-1.2c0,0,0,0,0,0c0.1-0.1,0.1-0.2,0.1-0.3c-0.1-0.1-0.2-0.1-0.3,0c0,0,0,0,0,0   c-0.3-0.4-0.6-0.9-0.9-1.3c0-0.1-0.1-0.1-0.1-0.2c0,0,0-0.1,0-0.1c0,0,0,0-0.1,0c-0.2-0.3-0.5-0.7-0.7-1c-0.3-0.4-0.7-0.9-1-1.3   c-0.2-0.3-0.5-0.5-0.7-0.8c0.1,0,0.1,0,0.1-0.1c0.1-0.1,0.1-0.2,0-0.3c-0.1-0.1-0.2-0.1-0.3,0c0,0-0.1,0.1-0.1,0.1   c-0.2-0.2-0.5-0.4-0.7-0.6c0-0.1,0-0.2-0.1-0.2c-0.1-0.1-0.2-0.1-0.2,0c0,0-0.1-0.1-0.1-0.1c-0.6-0.5-1.1-0.9-1.5-1.2   c-0.1-0.1-0.2-0.2-0.3-0.3c0,0,0,0,0,0c0.1-0.1,0.1-0.2,0-0.3c-0.1-0.1-0.2,0-0.3,0.1c0,0,0,0,0,0c-0.3-0.3-0.5-0.5-0.5-0.5   s-0.2-0.2-0.6-0.6c0,0,0-0.1,0-0.1c0,0,0,0-0.1,0c-0.1-0.1-0.2-0.2-0.2-0.3c-0.3-0.3-0.6-0.7-0.9-1.2c0,0,0-0.1,0-0.1   c0,0,0,0-0.1,0c-0.1-0.1-0.1-0.2-0.2-0.3c-0.1-0.1-0.1-0.2-0.2-0.3c-0.1-0.2-0.2-0.5-0.3-0.8c-0.2-0.6-0.4-1.3-0.6-2.1c0,0,0,0,0,0   c0.1,0,0.2-0.1,0.2-0.2S46.1,36,46,36.1c0,0,0,0,0,0c-0.1-0.5-0.2-1-0.3-1.5c0,0,0-0.1,0-0.1c0,0,0,0,0-0.1   c-0.1-0.4-0.2-0.9-0.3-1.4c-0.1-0.6-0.2-1.3-0.4-2c0,0,0.1,0,0.2,0c0.1,0,0.2-0.1,0.2-0.2c0-0.1-0.1-0.2-0.3-0.2   c-0.1,0-0.1,0-0.1,0.1c0-0.3-0.1-0.5-0.2-0.8c0.1,0,0.1-0.1,0.1-0.2c0-0.1-0.1-0.1-0.2-0.1c-0.2-0.8-0.4-1.7-0.6-2.5c0,0,0,0,0.1,0   c0.1,0,0.2-0.2,0.2-0.3c0-0.1-0.2-0.2-0.3-0.2c0,0,0,0,0,0c-0.1-0.3-0.1-0.5-0.2-0.8c-0.1-0.3-0.2-0.7-0.3-1c0,0,0-0.1,0-0.1   c0,0,0,0-0.1-0.1c-0.3-0.8-0.6-1.7-1.1-2.6c0,0,0-0.1,0-0.1c0,0-0.1,0-0.1-0.1c0,0,0,0,0-0.1c-0.2-0.4-0.5-0.7-0.7-1   c-0.2-0.3-0.4-0.5-0.7-0.8c-0.4-0.5-0.9-1-1.3-1.4c-0.4-0.4-0.7-0.7-1.1-1c0,0,0,0,0,0c0.1-0.1,0.1-0.2,0-0.3   c-0.1-0.1-0.2-0.1-0.3,0c0,0,0,0,0,0c-0.5-0.4-0.9-0.8-1.4-1.1c0,0,0,0,0-0.1c0,0,0,0-0.1,0c-0.8-0.6-1.5-1.1-2.2-1.6   c-0.3-0.2-0.5-0.3-0.7-0.5c0,0,0.1,0,0.1-0.1c0.1-0.1,0.1-0.2,0-0.3c-0.1-0.1-0.2,0-0.3,0.1c0,0,0,0.1,0,0.1   c-0.2-0.2-0.5-0.3-0.7-0.5c0-0.1,0-0.2-0.1-0.2c-0.1,0-0.2,0-0.2,0c-0.7-0.4-1.3-0.8-1.7-1.1c-0.1-0.1-0.3-0.2-0.4-0.2c0,0,0,0,0,0   c0.1-0.1,0-0.2-0.1-0.3c-0.1-0.1-0.2,0-0.3,0.1c0,0,0,0,0,0c-0.5-0.3-0.7-0.3-0.7-0.3L30.3,10z M69.7,77H30.3L10.7,43.4l15.7-26.9   c0,0,0.5,0.3,1.3,0.8c0,0,0,0,0.1,0.1c-0.1,0-0.1,0.1-0.1,0.1c-0.1,0.1-0.1,0.2,0,0.3s0.2,0,0.3-0.1c0-0.1,0-0.1,0-0.2   c0.2,0.1,0.5,0.3,0.8,0.5c-0.1,0-0.1,0.1-0.1,0.1c-0.1,0.1-0.1,0.2,0,0.3c0.1,0.1,0.2,0,0.3-0.1c0-0.1,0-0.1,0-0.2   c0.6,0.4,1.3,0.9,2.1,1.5c0.6,0.5,1.3,1,2,1.5c0,0,0,0.1,0,0.1c0,0,0.1,0,0.1,0c0.5,0.4,1.1,0.9,1.6,1.4c0,0-0.1,0-0.1,0.1   c-0.1,0.1-0.1,0.2,0,0.3c0.1,0.1,0.2,0,0.3-0.1c0,0,0.1-0.1,0.1-0.1c0.1,0.1,0.3,0.2,0.4,0.3c0.4,0.3,0.7,0.7,1,1l0.2,0.2   c-0.1,0.1-0.1,0.2,0,0.2c0,0.1,0.1,0,0.2,0l0.1,0.1c0.1,0.1,0.2,0.3,0.3,0.4c0.3,0.5,0.5,1.1,0.8,1.8c0,0,0,0.1,0,0.1   c0,0,0,0.1,0.1,0.1c0.1,0.2,0.1,0.4,0.2,0.6c0.1,0.5,0.2,0.9,0.4,1.4c0,0-0.1,0-0.2,0c-0.1,0-0.2,0.1-0.2,0.2   c0,0.1,0.1,0.2,0.3,0.1c0.1,0,0.1,0,0.1-0.1c0.1,0.3,0.1,0.6,0.2,0.9c0,0-0.1,0-0.2,0c-0.1,0-0.2,0.1-0.2,0.2   c0,0.1,0.1,0.2,0.3,0.1c0.1,0,0.1,0,0.1-0.1c0.3,1.2,0.5,2.5,0.7,3.7c0.1,0.5,0.2,1,0.3,1.6c0,0,0,0.1,0,0.1c0,0,0,0.1,0.1,0.1   c0.2,0.8,0.3,1.6,0.5,2.4c-0.1,0-0.1,0-0.2,0c-0.1,0-0.2,0.2-0.2,0.3c0,0.1,0.2,0.2,0.3,0.2c0.1,0,0.1-0.1,0.1-0.1   c0.2,0.6,0.3,1.3,0.5,1.9c0.2,0.4,0.3,0.7,0.4,1.1c-0.1,0.1-0.1,0.2,0,0.3c0.1,0.1,0.2,0.2,0.3,0.2c0.1,0.3,0.3,0.5,0.4,0.7   c0.1,0.2,0.2,0.4,0.4,0.6c0.5,0.7,0.9,1.3,1.3,1.8c0.2,0.2,0.4,0.4,0.5,0.6c0,0,0,0.1,0,0.1c0,0,0.1,0,0.1,0.1   c0.1,0.1,0.2,0.2,0.3,0.3c0.2,0.2,0.4,0.4,0.4,0.4s0.5,0.5,1.4,1.2c0,0,0,0,0.1,0.1c-0.1,0-0.1,0-0.2,0.1c-0.1,0.1-0.1,0.2,0,0.3   c0.1,0.1,0.2,0,0.3-0.1c0-0.1,0.1-0.1,0.1-0.2c0.2,0.2,0.5,0.4,0.7,0.6c-0.1,0-0.1,0-0.1,0.1c-0.1,0.1-0.1,0.2,0,0.3   c0.1,0.1,0.2,0,0.3-0.1c0,0,0.1-0.1,0.1-0.2c0.6,0.5,1.1,0.9,1.6,1.5c0.2,0.3,0.4,0.5,0.7,0.9c0.2,0.3,0.5,0.7,0.7,1   c0,0,0,0.1,0,0.1c0,0,0.1,0,0.1,0.1c0.4,0.6,0.8,1.2,1.2,1.8c-0.1,0-0.1,0-0.2,0c-0.1,0.1-0.2,0.2-0.1,0.3c0.1,0.1,0.2,0.1,0.3,0   c0.1,0,0.1-0.1,0.1-0.1c0.1,0.1,0.2,0.3,0.3,0.4c0.3,0.4,0.5,0.9,0.7,1.3c0.1,0.1,0.1,0.3,0.2,0.4c-0.1,0.1-0.1,0.2,0,0.3   c0.1,0.1,0.2,0.1,0.3,0.1c0.2,0.4,0.5,0.8,0.7,1.1c0.6,0.8,1.3,1.6,2,2.3c0,0,0,0.1,0.1,0.1c0,0,0.1,0.1,0.1,0.1   c0.2,0.2,0.4,0.3,0.5,0.5c0.4,0.4,0.9,0.8,1.3,1.2c-0.1,0-0.1,0-0.2,0.1c-0.1,0.1-0.1,0.2,0,0.3c0.1,0.1,0.2,0.1,0.3,0   c0,0,0.1-0.1,0.1-0.2c0.3,0.2,0.5,0.4,0.8,0.6c-0.1,0-0.1,0-0.2,0.1c-0.1,0.1-0.1,0.2,0,0.3c0.1,0.1,0.2,0.1,0.3,0   c0-0.1,0.1-0.1,0.1-0.2c1.5,1.2,3.1,2.4,4.5,3.4c0,0,0,0.1,0.1,0.1c0,0,0.1,0,0.1,0c0.7,0.5,1.4,0.9,2,1.3c-0.1,0-0.1,0.1-0.1,0.1   c-0.1,0.1-0.1,0.2,0,0.3c0.1,0.1,0.2,0,0.3-0.1c0-0.1,0-0.1,0-0.2c0.5,0.3,1,0.6,1.5,0.9c0.3,0.2,0.5,0.3,0.8,0.5   c0,0.1,0,0.2,0.1,0.2c0.1,0,0.2,0,0.2,0c1.1,0.6,2,1.2,2.6,1.6c0.2,0.1,0.4,0.2,0.6,0.3c0,0,0,0.1,0.1,0.1c0,0,0.1,0,0.1,0   c0.1,0.1,0.2,0,0.2,0L69.7,77z"></path><ellipse transform="matrix(0.8444 0.5358 -0.5358 0.8444 11.2226 -15.0109)" cx="31.4" cy="11.8" rx="0.2" ry="0.2"></ellipse><ellipse transform="matrix(0.8385 0.545 -0.545 0.8385 12.1102 -15.565)" cx="32.3" cy="12.6" rx="0.2" ry="0.2"></ellipse><ellipse transform="matrix(-0.5612 0.8277 -0.8277 -0.5612 63.4238 -7.1706)" cx="33.6" cy="13.2" rx="0.2" ry="0.2"></ellipse><ellipse transform="matrix(0.8318 0.5551 -0.5551 0.8318 12.4354 -16.4019)" cx="33.3" cy="12.3" rx="0.2" ry="0.2"></ellipse><ellipse transform="matrix(0.8163 0.5776 -0.5776 0.8163 14.4934 -17.3299)" cx="34.5" cy="14.1" rx="0.2" ry="0.2"></ellipse><ellipse transform="matrix(0.8059 0.592 -0.592 0.8059 15.6595 -18.1234)" cx="35.5" cy="14.8" rx="0.2" ry="0.2"></ellipse><ellipse transform="matrix(0.8036 0.5952 -0.5952 0.8036 15.9231 -18.7354)" cx="36.3" cy="14.8" rx="0.2" ry="0.2"></ellipse><ellipse transform="matrix(-0.7927 -0.6097 0.6097 -0.7927 55.6884 50.3276)" cx="36.4" cy="15.7" rx="0.2" ry="0.2"></ellipse><path d="M37.8,16.1c0.1-0.1,0.1-0.2,0-0.3c-0.1-0.1-0.2-0.1-0.3,0.1c-0.1,0.1-0.1,0.2,0,0.3C37.6,16.3,37.7,16.2,37.8,16.1z"></path><ellipse transform="matrix(-0.6352 0.7723 -0.7723 -0.6352 75.012 -1.9378)" cx="38" cy="16.7" rx="0.2" ry="0.2"></ellipse><path d="M39.7,17.9c0.1-0.1,0.1-0.2,0-0.3c-0.1-0.1-0.2-0.1-0.3,0c-0.1,0.1-0.1,0.2,0,0.3C39.4,18,39.6,18,39.7,17.9z"></path><path d="M40.4,19c0.1-0.1,0.1-0.2,0-0.3c-0.1-0.1-0.2-0.1-0.3,0c-0.1,0.1-0.1,0.2,0,0.3C40.2,19.1,40.3,19.1,40.4,19z"></path><path d="M41.4,19.6c-0.1,0.1-0.1,0.2,0,0.3c0.1,0.1,0.2,0.1,0.3,0c0.1-0.1,0.1-0.2,0-0.3C41.6,19.5,41.5,19.5,41.4,19.6z"></path><ellipse transform="matrix(0.6913 0.7226 -0.7226 0.6913 26.3163 -24.0892)" cx="41.4" cy="18.8" rx="0.2" ry="0.2"></ellipse><path d="M42.5,21.5c0.1-0.1,0.1-0.2,0-0.4c-0.1-0.1-0.3-0.2-0.4-0.1s-0.1,0.3,0,0.4C42.2,21.5,42.4,21.5,42.5,21.5z"></path><path d="M43.1,22.9c0.1-0.1,0.2-0.2,0.1-0.3c-0.1-0.1-0.2-0.2-0.3-0.1c-0.1,0.1-0.2,0.2-0.1,0.3C42.9,22.9,43,22.9,43.1,22.9z"></path><path d="M44.1,23.4c0.1,0,0.2-0.2,0.1-0.3c-0.1-0.1-0.2-0.2-0.3-0.1c-0.1,0.1-0.2,0.2-0.1,0.3C43.9,23.4,44,23.4,44.1,23.4z"></path><ellipse transform="matrix(0.3579 0.9338 -0.9338 0.3579 50.4805 -25.2672)" cx="43.6" cy="24.1" rx="0.2" ry="0.2"></ellipse><circle cx="44.5" cy="25.1" r="0.2"></circle><path d="M44.3,25.7c-0.1,0-0.2,0.2-0.2,0.3l0,0c0,0.1,0.2,0.2,0.3,0.1c0.1,0,0.2-0.2,0.2-0.3l0,0C44.6,25.8,44.4,25.7,44.3,25.7z"></path><ellipse transform="matrix(0.2223 0.975 -0.975 0.2223 62.0286 -22.4098)" cx="45.1" cy="27.7" rx="0.2" ry="0.2"></ellipse><ellipse transform="matrix(-0.2003 -0.9797 0.9797 -0.2003 25.8106 78.8618)" cx="45.1" cy="28.9" rx="0.2" ry="0.2"></ellipse><ellipse transform="matrix(0.1866 0.9824 -0.9824 0.1866 66.7839 -20.2101)" cx="45.6" cy="30.2" rx="0.2" ry="0.2"></ellipse><ellipse transform="matrix(0.1999 0.9798 -0.9798 0.1999 65.5714 -21.5936)" cx="46" cy="29.4" rx="0.2" ry="0.2"></ellipse><ellipse transform="matrix(0.1821 0.9833 -0.9833 0.1821 68.2153 -19.1016)" cx="45.6" cy="31.5" rx="0.2" ry="0.2"></ellipse><ellipse transform="matrix(0.1812 0.9834 -0.9834 0.1812 69.5404 -18.362)" cx="45.8" cy="32.6" rx="0.2" ry="0.2"></ellipse><ellipse transform="matrix(0.1826 0.9832 -0.9832 0.1826 70.5231 -18.6439)" cx="46.5" cy="33.1" rx="0.2" ry="0.2"></ellipse><ellipse transform="matrix(-0.1828 -0.9831 0.9831 -0.1828 21.0547 85.0473)" cx="45.9" cy="33.8" rx="0.2" ry="0.2"></ellipse><ellipse transform="matrix(-0.9809 0.1947 -0.1947 -0.9809 99.0526 59.7095)" cx="46.6" cy="34.7" rx="0.2" ry="0.2"></ellipse><path d="M46.3,35.2c-0.1,0-0.2,0.1-0.2,0.2c0,0.1,0.1,0.2,0.3,0.1c0.1,0,0.2-0.1,0.2-0.2C46.5,35.3,46.4,35.2,46.3,35.2z"></path><ellipse transform="matrix(-0.9705 0.241 -0.241 -0.9705 101.3119 61.3142)" cx="46.9" cy="36.9" rx="0.2" ry="0.2"></ellipse><ellipse transform="matrix(-0.9586 0.2847 -0.2847 -0.9586 102.6965 60.7678)" cx="46.9" cy="37.8" rx="0.2" ry="0.2"></ellipse><path d="M47.5,38.9c0.1-0.1,0.2-0.1,0.2-0.2c0-0.1-0.1-0.1-0.3,0c-0.1,0-0.2,0.1-0.2,0.2C47.3,38.9,47.4,38.9,47.5,38.9z"></path><path d="M47.9,38.2c0.1,0,0.2-0.1,0.2-0.2c0-0.1-0.1-0.1-0.3-0.1c-0.1,0-0.2,0.1-0.2,0.2C47.6,38.2,47.8,38.2,47.9,38.2z"></path><path d="M47.7,39.3c0-0.1-0.1,0-0.3,0c-0.1,0.1-0.2,0.2-0.2,0.2c0,0.1,0.2,0.1,0.3,0C47.7,39.5,47.8,39.4,47.7,39.3z"></path><ellipse transform="matrix(-0.5821 -0.8131 0.8131 -0.5821 43.0514 102.5784)" cx="47.9" cy="40.2" rx="0.2" ry="0.2"></ellipse><path d="M48.8,40.3c0.1-0.1,0.1-0.2,0.1-0.3c0-0.1-0.2,0-0.3,0c-0.1,0.1-0.2,0.2-0.1,0.3C48.6,40.4,48.7,40.4,48.8,40.3z"></path><path d="M48.6,41.1c0.1-0.1,0.1-0.2,0.1-0.3c-0.1-0.1-0.2-0.1-0.3,0c-0.1,0.1-0.1,0.2-0.1,0.3C48.3,41.2,48.5,41.2,48.6,41.1z"></path><ellipse transform="matrix(0.7032 0.711 -0.711 0.7032 43.9893 -22.8889)" cx="49.4" cy="41.2" rx="0.1" ry="0.2"></ellipse><path d="M49.4,41.8c-0.1,0.1-0.1,0.2,0,0.3l0.3-0.3C49.6,41.6,49.5,41.7,49.4,41.8z"></path><path d="M44.6,46.5c-0.1,0.1-0.1,0.2,0,0.3l0.3-0.3C44.9,46.4,44.7,46.4,44.6,46.5z"></path><path d="M43.1,45.2c-0.1,0.1-0.1,0.2,0,0.3c0.1,0.1,0.2,0.1,0.3,0c0.1-0.1,0.1-0.2,0-0.3C43.3,45.1,43.2,45.1,43.1,45.2z"></path><ellipse transform="matrix(-0.5792 -0.8152 0.8152 -0.5792 31.2609 104.3144)" cx="42.6" cy="44.1" rx="0.2" ry="0.2"></ellipse><path d="M41.6,43c0.1-0.1,0.1-0.2,0.1-0.4c-0.1-0.1-0.2-0.2-0.3-0.2s-0.1,0.2-0.1,0.4C41.3,43.1,41.5,43.1,41.6,43z"></path><ellipse transform="matrix(-0.5356 -0.8445 0.8445 -0.5356 26.5791 102.4591)" cx="41.5" cy="43.9" rx="0.3" ry="0.2"></ellipse><ellipse transform="matrix(-0.3552 -0.9348 0.9348 -0.3552 17.0186 94.0562)" cx="40.9" cy="41.2" rx="0.3" ry="0.2"></ellipse><circle cx="40.5" cy="39.8" r="0.2"></circle><path d="M39.7,39.1c-0.1,0-0.2,0.2-0.2,0.3c0,0.1,0.2,0.2,0.3,0.2c0.1,0,0.2-0.2,0.2-0.3C39.9,39.1,39.8,39,39.7,39.1z"></path><ellipse transform="matrix(0.977 -0.2131 0.2131 0.977 -7.0696 9.2784)" cx="39.5" cy="37.4" rx="0.2" ry="0.2"></ellipse><ellipse transform="matrix(0.2024 0.9793 -0.9793 0.2024 67.5998 -9.6552)" cx="39.7" cy="36.7" rx="0.2" ry="0.2"></ellipse><ellipse transform="matrix(0.9828 -0.1848 0.1848 0.9828 -5.7965 7.84)" cx="39.2" cy="35" rx="0.2" ry="0.2"></ellipse><ellipse transform="matrix(0.1811 0.9835 -0.9835 0.1811 65.386 -10.816)" cx="39.2" cy="33.9" rx="0.2" ry="0.2"></ellipse><ellipse transform="matrix(-0.1845 -0.9828 0.9828 -0.1845 13.8338 76.639)" cx="38.7" cy="32.6" rx="0.2" ry="0.2"></ellipse><ellipse transform="matrix(-0.1806 -0.9836 0.9836 -0.1806 12.3353 77.1028)" cx="38.3" cy="33.4" rx="0.2" ry="0.2"></ellipse><ellipse transform="matrix(0.1879 0.9822 -0.9822 0.1879 62.2959 -12.5371)" cx="38.7" cy="31.4" rx="0.2" ry="0.2"></ellipse><ellipse transform="matrix(-0.2225 -0.9749 0.9749 -0.2225 17.1231 73.4003)" cx="37.8" cy="29.9" rx="0.2" ry="0.2"></ellipse><ellipse transform="matrix(0.9673 -0.2535 0.2535 0.9673 -5.956 10.4713)" cx="37.7" cy="28.4" rx="0.2" ry="0.2"></ellipse><path d="M37.9,27.9c0.1,0,0.2-0.1,0.2-0.2l0,0c0-0.1-0.2-0.1-0.3-0.1c-0.1,0-0.2,0.1-0.2,0.2l0,0C37.7,27.8,37.8,27.9,37.9,27.9z"></path><ellipse transform="matrix(-0.3618 -0.9323 0.9323 -0.3618 26.0225 70.7252)" cx="37.2" cy="26.5" rx="0.2" ry="0.2"></ellipse><path d="M37.2,25.7c0.1-0.1,0.2-0.2,0.2-0.2c0-0.1-0.2-0.1-0.3,0c-0.1,0.1-0.2,0.2-0.2,0.2C36.9,25.8,37.1,25.8,37.2,25.7z"></path><path d="M36.5,25c-0.1,0.1-0.2,0.2-0.1,0.2c0,0,0.1,0,0.2-0.1c0.1-0.1,0.2-0.2,0.1-0.2C36.7,24.9,36.6,24.9,36.5,25z"></path><path d="M36.2,25.6c-0.1,0.1-0.2,0.1-0.2,0.2c0,0.1,0.1,0.1,0.3,0c0.1-0.1,0.2-0.2,0.2-0.2C36.4,25.5,36.3,25.5,36.2,25.6z"></path><path d="M36.3,24.4c0.1-0.1,0.1-0.2,0.1-0.3c-0.1-0.1-0.2,0-0.3,0c-0.1,0.1-0.1,0.2-0.1,0.3C36.1,24.5,36.2,24.5,36.3,24.4z"></path><path d="M35.5,23.5c-0.1,0.1-0.1,0.2,0,0.3c0.1,0.1,0.2,0,0.3,0c0.1-0.1,0.1-0.2,0.1-0.3C35.7,23.4,35.6,23.4,35.5,23.5z"></path><ellipse transform="matrix(-0.7265 -0.6872 0.6872 -0.7265 43.8085 64.7884)" cx="34.8" cy="23.7" rx="0.2" ry="0.2"></ellipse><ellipse transform="matrix(-0.7621 -0.6475 0.6475 -0.7621 45.0056 61.6556)" cx="33.8" cy="22.6" rx="0.2" ry="0.2"></ellipse><ellipse transform="matrix(0.6333 -0.7739 0.7739 0.6333 -4.6122 34.0426)" cx="33.6" cy="21.9" rx="0.2" ry="0.2"></ellipse><ellipse transform="matrix(-0.7928 -0.6094 0.6094 -0.7928 44.9668 57.5149)" cx="32.3" cy="21.1" rx="0.2" ry="0.2"></ellipse><ellipse transform="matrix(-0.804 -0.5947 0.5947 -0.804 44.8491 55.3724)" cx="31.6" cy="20.3" rx="0.2" ry="0.2"></ellipse><ellipse transform="matrix(0.5728 -0.8197 0.8197 0.5728 -3.2057 33.3343)" cx="30.4" cy="19.7" rx="0.2" ry="0.2"></ellipse><ellipse transform="matrix(-0.8148 -0.5798 0.5798 -0.8148 43.6154 55.1699)" cx="30.6" cy="20.6" rx="0.2" ry="0.2"></ellipse><ellipse transform="matrix(-0.83 -0.5578 0.5578 -0.83 43.5855 51.113)" cx="29.6" cy="18.9" rx="0.2" ry="0.2"></ellipse><ellipse transform="matrix(-0.8405 -0.5417 0.5417 -0.8405 41.2738 49.0752)" cx="27.9" cy="18.5" rx="0.2" ry="0.2"></ellipse><ellipse transform="matrix(-0.8535 -0.521 0.521 -0.8535 40.2403 46.2288)" cx="26.6" cy="17.5" rx="0.2" ry="0.2"></ellipse><path d="M49.7,42.1c0.1-0.1,0.1-0.2,0-0.3l-0.3,0.3C49.5,42.2,49.6,42.2,49.7,42.1z"></path><ellipse transform="matrix(0.7788 0.6273 -0.6273 0.7788 38.0704 -22.4561)" cx="50.9" cy="42.7" rx="0.2" ry="0.2"></ellipse><path d="M51.8,43.8c0.1-0.1,0.1-0.2,0-0.3c-0.1-0.1-0.2,0-0.3,0.1c-0.1,0.1-0.1,0.2,0,0.3C51.6,43.9,51.7,43.9,51.8,43.8z"></path><path d="M52.8,44.6c0.1,0.1,0.2,0.1,0.3,0c0.1-0.1,0.1-0.2,0-0.3c-0.1-0.1-0.2-0.1-0.3,0C52.7,44.4,52.7,44.5,52.8,44.6z"></path><path d="M52.8,43.6c0.1-0.1,0.1-0.2,0-0.3c-0.1-0.1-0.2-0.1-0.3,0c-0.1,0.1-0.1,0.2,0,0.3C52.6,43.7,52.7,43.7,52.8,43.6z"></path><path d="M54,45.8c0.1-0.1,0.1-0.2,0-0.3c-0.1-0.1-0.3-0.1-0.3,0c-0.1,0.1-0.1,0.2,0,0.3C53.7,45.9,53.9,45.9,54,45.8z"></path><ellipse transform="matrix(0.6217 0.7832 -0.7832 0.6217 57.2958 -25.1924)" cx="54.7" cy="46.7" rx="0.2" ry="0.2"></ellipse><ellipse transform="matrix(0.5944 0.8041 -0.8041 0.5944 60.3397 -25.6979)" cx="55.6" cy="47" rx="0.2" ry="0.2"></ellipse><ellipse transform="matrix(0.5849 0.8111 -0.8111 0.5849 61.8556 -25.0804)" cx="55.4" cy="47.9" rx="0.2" ry="0.2"></ellipse><ellipse transform="matrix(0.568 0.823 -0.823 0.568 64.3756 -25.5595)" cx="56.5" cy="48.5" rx="0.2" ry="0.2"></ellipse><ellipse transform="matrix(-0.5586 -0.8295 0.8295 -0.5586 47.313 123.8443)" cx="56.6" cy="49.3" rx="0.2" ry="0.2"></ellipse><ellipse transform="matrix(0.5291 0.8485 -0.8485 0.5291 70.2363 -25.1551)" cx="57.8" cy="50.7" rx="0.2" ry="0.2"></ellipse><path d="M58,52c0.1,0.1,0.2,0.1,0.3,0.1c0.1-0.1,0.2-0.2,0.1-0.3c-0.1-0.1-0.2-0.1-0.3-0.1C58,51.8,58,51.9,58,52z"></path><path d="M59.2,53.2c0.1-0.1,0.2-0.1,0.1-0.2c-0.1-0.1-0.2-0.2-0.3-0.1c-0.1,0.1-0.2,0.2-0.1,0.3C59,53.3,59.1,53.3,59.2,53.2z"></path><path d="M59.4,52.3c0.1-0.1,0.2-0.2,0.1-0.3c-0.1-0.1-0.2-0.2-0.3-0.1c-0.1,0.1-0.2,0.2-0.1,0.3C59.1,52.3,59.3,52.3,59.4,52.3z"></path><path d="M59.3,53.8c-0.1,0.1-0.2,0.2-0.1,0.2c0,0.1,0.1,0.1,0.3,0c0.1-0.1,0.2-0.2,0.1-0.2C59.5,53.7,59.4,53.7,59.3,53.8z"></path><ellipse transform="matrix(-0.7749 0.6321 -0.6321 -0.7749 140.5581 59.1339)" cx="59.7" cy="54.6" rx="0.2" ry="0.2"></ellipse><path d="M60.7,54.7c0.1-0.1,0.1-0.2,0.1-0.3c-0.1-0.1-0.2,0-0.3,0c-0.1,0.1-0.1,0.2-0.1,0.3C60.5,54.8,60.6,54.7,60.7,54.7z"></path><ellipse transform="matrix(0.695 0.719 -0.719 0.695 58.234 -26.5581)" cx="60.4" cy="55.4" rx="0.2" ry="0.2"></ellipse><path d="M61.6,55.8c0.1-0.1,0.1-0.2,0-0.3c-0.1-0.1-0.2,0-0.3,0c-0.1,0.1-0.1,0.2,0,0.3C61.4,55.9,61.5,55.9,61.6,55.8z"></path><path d="M61.5,56.2c-0.1,0.1-0.1,0.2,0,0.3l0,0c0.1,0.1,0.2,0,0.3-0.1c0.1-0.1,0.1-0.2,0-0.3l0,0C61.7,56.1,61.6,56.1,61.5,56.2z"></path><ellipse transform="matrix(0.7684 0.6399 -0.6399 0.7684 51.1479 -27.0168)" cx="62.9" cy="57.2" rx="0.2" ry="0.2"></ellipse><ellipse transform="matrix(0.7673 0.6413 -0.6413 0.7673 52.0001 -27.258)" cx="63.6" cy="58" rx="0.2" ry="0.2"></ellipse><ellipse transform="matrix(-0.7906 -0.6123 0.6123 -0.7906 79.9573 144.5703)" cx="64.7" cy="58.6" rx="0.2" ry="0.2"></ellipse><ellipse transform="matrix(0.7911 0.6117 -0.6117 0.7911 48.7869 -27.3892)" cx="64.5" cy="57.7" rx="0.2" ry="0.2"></ellipse><ellipse transform="matrix(0.8082 0.5889 -0.5889 0.8082 47.5768 -27.128)" cx="65.4" cy="59.5" rx="0.2" ry="0.2"></ellipse><ellipse transform="matrix(0.8079 0.5893 -0.5893 0.8079 48.1692 -27.533)" cx="66.3" cy="60.1" rx="0.2" ry="0.2"></ellipse><ellipse transform="matrix(0.8133 0.5819 -0.5819 0.8133 47.454 -27.861)" cx="67.1" cy="60" rx="0.2" ry="0.2"></ellipse><ellipse transform="matrix(-0.8218 -0.5698 0.5698 -0.8218 87.6689 149.2383)" cx="67.2" cy="60.9" rx="0.2" ry="0.2"></ellipse><ellipse transform="matrix(0.8215 0.5702 -0.5702 0.8215 47.0262 -28.0669)" cx="68.3" cy="61.1" rx="0.2" ry="0.2"></ellipse><ellipse transform="matrix(-0.5593 0.829 -0.829 -0.5593 158.2319 39.3786)" cx="68.6" cy="61.8" rx="0.2" ry="0.2"></ellipse><ellipse transform="matrix(0.8382 0.5453 -0.5453 0.8382 45.4024 -28.1394)" cx="70.1" cy="62.4" rx="0.2" ry="0.2"></ellipse><ellipse transform="matrix(0.8414 0.5403 -0.5403 0.8414 45.4151 -28.2933)" cx="70.9" cy="63.2" rx="0.2" ry="0.2"></ellipse><ellipse transform="matrix(-0.5292 0.8485 -0.8485 -0.5292 164.4154 36.2456)" cx="72.2" cy="63.7" rx="0.2" ry="0.2"></ellipse><ellipse transform="matrix(0.8449 0.5349 -0.5349 0.8449 44.7756 -28.6791)" cx="71.8" cy="62.9" rx="0.2" ry="0.2"></ellipse><ellipse transform="matrix(0.8553 0.5181 -0.5181 0.8553 44.004 -28.4857)" cx="73" cy="64.5" rx="0.2" ry="0.2"></ellipse><ellipse transform="matrix(0.8568 0.5157 -0.5157 0.8568 44.2092 -28.7401)" cx="73.8" cy="65.2" rx="0.2" ry="0.2"></ellipse><ellipse transform="matrix(0.8607 0.5092 -0.5092 0.8607 43.4827 -29.0233)" cx="74.8" cy="64.9" rx="0.2" ry="0.2"></ellipse><ellipse transform="matrix(-0.8624 -0.5063 0.5063 -0.8624 106.1279 160.5235)" cx="74.9" cy="65.8" rx="0.2" ry="0.2"></ellipse><ellipse transform="matrix(-0.8622 -0.5066 0.5066 -0.8622 96.6738 169.7306)" cx="71.4" cy="71.7" rx="0.2" ry="0.2"></ellipse><ellipse transform="matrix(-0.8581 -0.5135 0.5135 -0.8581 94.6605 168.0074)" cx="70.5" cy="70.9" rx="0.2" ry="0.2"></ellipse><ellipse transform="matrix(0.5223 -0.8527 0.8527 0.5223 -26.966 92.6757)" cx="69.2" cy="70.4" rx="0.2" ry="0.2"></ellipse><ellipse transform="matrix(-0.8553 -0.5182 0.5182 -0.8553 92.1855 168.3388)" cx="69.6" cy="71.3" rx="0.2" ry="0.2"></ellipse><ellipse transform="matrix(-0.8489 -0.5285 0.5285 -0.8489 89.5786 164.741)" cx="68.3" cy="69.6" rx="0.2" ry="0.2"></ellipse><ellipse transform="matrix(-0.8415 -0.5402 0.5402 -0.8415 86.7692 163.3405)" cx="67.3" cy="68.9" rx="0.2" ry="0.2"></ellipse><ellipse transform="matrix(-0.8415 -0.5403 0.5403 -0.8415 85.1151 163.1211)" cx="66.5" cy="69.1" rx="0.2" ry="0.2"></ellipse><ellipse transform="matrix(-0.8326 -0.5539 0.5539 -0.8326 81.7365 160.6351)" cx="65.1" cy="68" rx="0.2" ry="0.2"></ellipse><ellipse transform="matrix(0.56 -0.8285 0.8285 0.56 -27.2247 83.2912)" cx="64.8" cy="67.3" rx="0.2" ry="0.2"></ellipse><ellipse transform="matrix(-0.8215 -0.5702 0.5702 -0.8215 77.2825 157.1623)" cx="63.2" cy="66.5" rx="0.2" ry="0.2"></ellipse><ellipse transform="matrix(-0.8082 -0.589 0.589 -0.8082 74.2261 155.4013)" cx="62.4" cy="65.6" rx="0.2" ry="0.2"></ellipse><ellipse transform="matrix(0.5996 -0.8003 0.8003 0.5996 -27.5144 74.9453)" cx="61.1" cy="65" rx="0.2" ry="0.2"></ellipse><ellipse transform="matrix(-0.8079 -0.5894 0.5894 -0.8079 72.2361 155.3367)" cx="61.4" cy="65.9" rx="0.2" ry="0.2"></ellipse><ellipse transform="matrix(-0.7905 -0.6125 0.6125 -0.7905 68.7577 151.5651)" cx="60.3" cy="64" rx="0.2" ry="0.2"></ellipse><ellipse transform="matrix(-0.7678 -0.6407 0.6407 -0.7678 62.8208 149.3323)" cx="58.5" cy="63.3" rx="0.2" ry="0.2"></ellipse><ellipse transform="matrix(-0.7374 -0.6754 0.6754 -0.7374 57.5621 146.2625)" cx="57.2" cy="61.9" rx="0.2" ry="0.2"></ellipse><path d="M57.1,61L57.1,61c-0.1-0.1-0.2-0.1-0.3,0c-0.1,0.1-0.1,0.2,0,0.3l0,0c0.1,0.1,0.2,0.1,0.3,0C57.2,61.2,57.2,61.1,57.1,61z"></path><circle cx="55.4" cy="60" r="0.2"></circle><ellipse transform="matrix(-0.63 -0.7766 0.7766 -0.63 43.4904 138.4249)" cx="54.7" cy="58.9" rx="0.2" ry="0.2"></ellipse><path d="M53.6,57.9c0.1-0.1,0.1-0.2,0-0.4c-0.1-0.1-0.2-0.2-0.3-0.1c-0.1,0.1-0.1,0.2,0,0.4C53.4,57.9,53.5,57.9,53.6,57.9z"></path><path d="M53.5,58.6c-0.1,0.1-0.1,0.2,0,0.3c0.1,0.1,0.2,0.1,0.3,0.1c0.1-0.1,0.1-0.2,0-0.3C53.7,58.5,53.6,58.5,53.5,58.6z"></path><path d="M52.8,56c-0.1,0.1-0.2,0.2-0.1,0.3c0,0.1,0.2,0.1,0.3,0.1c0.1-0.1,0.2-0.2,0.1-0.3C53.1,56,52.9,56,52.8,56z"></path><ellipse transform="matrix(-0.5016 -0.8651 0.8651 -0.5016 30.8733 128.4149)" cx="52.4" cy="55.3" rx="0.2" ry="0.2"></ellipse><ellipse transform="matrix(-0.5178 -0.8555 0.8555 -0.5178 31.2366 127.8521)" cx="51.6" cy="55.1" rx="0.2" ry="0.2"></ellipse><ellipse transform="matrix(-0.5497 -0.8354 0.8354 -0.5497 34.1406 125.8652)" cx="51" cy="53.7" rx="0.2" ry="0.2"></ellipse><ellipse transform="matrix(0.5596 0.8288 -0.8288 0.5596 66.3853 -18.8992)" cx="51" cy="53" rx="0.2" ry="0.2"></ellipse><ellipse transform="matrix(-0.5853 -0.8108 0.8108 -0.5853 37.0335 122.676)" cx="49.9" cy="51.9" rx="0.2" ry="0.2"></ellipse><ellipse transform="matrix(0.7849 -0.6196 0.6196 0.7849 -20.922 41.6236)" cx="49.5" cy="50.9" rx="0.2" ry="0.2"></ellipse><ellipse transform="matrix(-0.7028 -0.7114 0.7114 -0.7028 47.0335 120.3338)" cx="48.7" cy="50.3" rx="0.2" ry="0.2"></ellipse><ellipse transform="matrix(-0.6656 -0.7463 0.7463 -0.6656 42.7825 121.4181)" cx="48.6" cy="51.1" rx="0.1" ry="0.2"></ellipse><path d="M48,49.4c-0.1,0.1-0.1,0.2,0,0.3c0.1,0.1,0.2,0,0.3-0.1c0.1-0.1,0.1-0.2,0-0.3C48.2,49.3,48.1,49.3,48,49.4z"></path><path d="M46.4,48.8c-0.1,0.1-0.1,0.2,0,0.3c0.1,0.1,0.2,0,0.3-0.1c0.1-0.1,0.1-0.2,0-0.3C46.6,48.7,46.5,48.7,46.4,48.8z"></path><circle cx="45.3" cy="47.7" r="0.2"></circle><path d="M45.1,46.7L44.8,47c0.1,0.1,0.2,0.1,0.3,0C45.2,46.9,45.2,46.8,45.1,46.7z"></path></g></g><g id="SvgjsG2421" featureKey="nameFeature-0" transform="matrix(0.6635986435191547,0,0,0.6635986435191547,118.96312711950132,27.737751154356452)" fill="#ffffff"><path d="M1.5625 7.93 l15.352 21.055 l15.352 -21.055 l0 32.07 l-6.3086 0 l0 -12.988 l-9.043 12.48 l-9.043 -12.48 l0 12.988 l-6.3086 0 l0 -32.07 z M35.390625 8.515999999999998 l18.887 0 l0 6.2891 l-12.578 0 l0 6.3086 l9.4336 0 l0 6.2891 l-9.4336 0 l0 6.2891 l12.578 0 l0 6.3086 l-12.578 0 l-6.3086 0 l0 -31.484 z M67.91053125 29.59 l5.5664 0 l-2.7734 -6.543 z M65.33203125 35.1562 l-0.039063 -0.019531 c-0.70313 1.6016 -1.4258 3.1836 -2.1484 4.7852 l-6.7773 0 l14.277 -31.992 l14.316 31.992 l-6.7969 0 c-0.70313 -1.582 -1.4063 -3.1836 -2.1094 -4.7656 l-10.723 0 z M87.36328125 7.93 l18.887 17.988 l0 -17.402 l6.3086 0 l0 32.07 l-18.887 -18.008 l0 17.422 l-6.3086 0 l0 -32.07 z M123.43749375 8.594000000000001 l0 -0.019531 c4.3164 0 8.3984 1.543 11.484 4.6289 c5.625 5.625 5.625 16.582 0 22.188 c-3.0859 3.0664 -7.168 4.6094 -11.484 4.6094 l-7.7734 0 l0 -31.406 l7.7734 0 z M123.45699375 33.6914 l0.019531 0 c2.5781 0 4.9609 -0.72266 6.7969 -2.5586 s2.5586 -4.2578 2.5586 -6.8555 c0 -2.5781 -0.72266 -5 -2.5781 -6.8555 c-1.8359 -1.8555 -4.2578 -2.5781 -6.8359 -2.5781 l-1.4453 0 l0 18.848 l1.4844 0 z M141.484375 8.515999999999998 l18.887 0 l0 6.2891 l-12.578 0 l0 6.3086 l9.4336 0 l0 6.2891 l-9.4336 0 l0 6.2891 l12.578 0 l0 6.3086 l-12.578 0 l-6.3086 0 l0 -31.484 z M163.30078125 40 l-0.019531 -31.523 l10.234 0 c3.0273 0 6.0156 1.0547 8.1836 3.2227 s3.0469 4.1992 3.0469 7.2266 l0 0.97656 c0 2.3438 -0.66406 4.0625 -1.9922 5.9375 s-2.4414 2.4219 -4.5117 3.2031 l7.1094 10.957 l-7.6953 0 l-8.0469 -12.305 l0 12.305 l-6.3086 0 z M169.58988125 23.633 l4.5117 0.019531 c1.3086 0 1.9727 -0.33203 2.8906 -1.25 s1.25 -1.9727 1.25 -3.2813 c0 -1.2891 -0.33203 -2.1484 -1.25 -3.0859 s-2.5586 -1.2695 -3.8672 -1.2695 l-3.5352 0 l0 8.8672 z M209.3555 33.7891 l-0.019531 -0.039063 c1.7383 0 3.1836 -1.4453 3.1836 -3.1836 c0 -1.3477 -0.52734 -2.207 -1.6016 -2.5977 c-2.2656 -0.83984 -1.7188 -0.64453 -3.9258 -1.4063 c-2.3242 -0.80078 -4.4727 -2.3828 -5.918 -4.3555 c-0.85938 -1.1719 -1.2891 -2.6172 -1.2891 -4.3555 c0 -2.6172 0.9375 -4.8633 2.8125 -6.7383 s4.1211 -2.8125 6.7578 -2.8125 c2.6172 0 4.8633 0.9375 6.7383 2.8125 s2.8125 4.1211 2.8125 6.7383 l-6.3477 0 c0 -1.7188 -1.4453 -3.1641 -3.1641 -3.1641 c-1.7383 0 -3.1836 1.4453 -3.1836 3.1836 c0 1.1328 0.44922 1.9922 1.3672 2.5781 c1.875 1.2109 1.6602 0.97656 3.9063 1.6406 c2.4219 0.70313 4.6094 2.207 6.1133 4.1406 c0.87891 1.1328 1.3281 2.5977 1.3281 4.375 c0 2.6367 -0.9375 4.8828 -2.8125 6.7578 s-4.1211 2.8125 -6.7383 2.8125 c-2.6367 0 -4.8828 -0.9375 -6.7578 -2.8125 s-2.8125 -4.1211 -2.8125 -6.7578 l6.3672 0 c0 1.7578 1.4258 3.1836 3.1836 3.1836 z M240.78090625 8.515999999999998 l6.3477 0 l0 12.656 l0 6.3281 c0 3.4961 -1.2305 6.4844 -3.7109 8.9648 s-5.4688 3.7109 -8.9453 3.7109 c-3.4961 0 -6.4844 -1.2305 -8.9648 -3.7109 s-3.7109 -5.4688 -3.7109 -8.9648 l0 -6.3281 l0 -12.656 l6.3477 0 l0 12.656 l0 5.6641 l0 0.64453 c0 1.7383 0.625 3.2227 1.8555 4.4531 s2.7148 1.8555 4.4531 1.8555 c1.7188 0 3.2031 -0.625 4.4531 -1.8555 s1.875 -2.7148 1.875 -4.4531 l0 -0.64453 l0 -5.6641 l0 -12.656 z M250.234375 40 l0 -31.484 l6.3086 0 l0 31.484 l-6.3086 0 z M267.14846875 8.515999999999998 l6.3086 0 l7.8711 0 l0 6.2891 l-7.8711 0 l0 25.195 l-6.3086 0 l0 -25.195 l-7.8711 0 l0 -6.2891 l7.8711 0 z M284.0625 8.515999999999998 l18.887 0 l0 6.2891 l-12.578 0 l0 6.3086 l9.4336 0 l0 6.2891 l-9.4336 0 l0 6.2891 l12.578 0 l0 6.3086 l-12.578 0 l-6.3086 0 l0 -31.484 z"></path></g>
			</g>
		</svg>
	